<?xml version="1.0" encoding="utf-8"?>
<!-- Generator: Adobe Illustrator 23.0.1, SVG Export Plug-In . SVG Version: 6.00 Build 0)  -->
<svg version="1.1" id="Capa_1" xmlns="http://www.w3.org/2000/svg" xmlns:xlink="http://www.w3.org/1999/xlink" x="0px" y="0px"
	 viewBox="0 0 60 60" style="enable-background:new 0 0 60 60;" xml:space="preserve">
<style type="text/css">
	.st0{fill:#1A1AA2;}
	.st1{fill-rule:evenodd;clip-rule:evenodd;fill:#F7F1E8;}
</style>
<rect x="10.6" y="14.6" class="st0" width="37.9" height="30.7"/>
<path class="st1" d="M10.9,0C8,0,5.2,1.1,3.2,3.2S0,8,0,10.9v38.2c0,2.9,1.1,5.7,3.2,7.7c2,2,4.8,3.2,7.7,3.2h38.2
	c2.9,0,5.7-1.1,7.7-3.2c2-2,3.2-4.8,3.2-7.7V10.9c0-2.9-1.1-5.7-3.2-7.7c-2-2-4.8-3.2-7.7-3.2H10.9z M42.1,20.9
	c0.7,0,1.4-0.3,1.9-0.8c0.5-0.5,0.8-1.2,0.8-1.9c0-0.7-0.3-1.4-0.8-1.9c-0.5-0.5-1.2-0.8-1.9-0.8c-0.7,0-1.4,0.3-1.9,0.8
	c-0.5,0.5-0.8,1.2-0.8,1.9c0,0.7,0.3,1.4,0.8,1.9C40.7,20.6,41.4,20.9,42.1,20.9z M44.9,43.6V23.9h-5.5v19.7H44.9z M10.6,43.6
	l8.7-24.9v-1.8h7l9.6,26.7h-6l-2.3-6.2h-9.4l-2.1,6.2H10.6z M19.7,32h6.4l-3.2-10.4L19.7,32z"/>
</svg>
