<?xml version="1.0" encoding="utf-8"?>
<!-- Generator: Adobe Illustrator 23.0.1, SVG Export Plug-In . SVG Version: 6.00 Build 0)  -->
<svg version="1.1" id="Capa_1" xmlns="http://www.w3.org/2000/svg" xmlns:xlink="http://www.w3.org/1999/xlink" x="0px" y="0px"
	 viewBox="0 0 55 55" style="enable-background:new 0 0 55 55;" xml:space="preserve">
<style type="text/css">
	.st0{fill:#1A1AA2;}
	.st1{fill-rule:evenodd;clip-rule:evenodd;fill:#F7F1E8;}
</style>
<rect x="9.7" y="13.4" class="st0" width="34.7" height="28.1"/>
<path class="st1" d="M10,0C7.3,0,4.8,1,2.9,2.9S0,7.3,0,10v35c0,2.7,1,5.2,2.9,7.1C4.8,53.9,7.3,55,10,55h35c2.7,0,5.2-1,7.1-2.9
	c1.8-1.8,2.9-4.4,2.9-7.1V10c0-2.7-1-5.2-2.9-7.1C50.2,1.1,47.7,0,45,0C45,0,10,0,10,0z M38.6,19.2c0.6,0,1.3-0.3,1.7-0.7
	c0.5-0.5,0.7-1.1,0.7-1.7c0-0.6-0.3-1.3-0.7-1.7c-0.5-0.5-1.1-0.7-1.7-0.7c-0.6,0-1.3,0.3-1.7,0.7c-0.5,0.5-0.7,1.1-0.7,1.7
	s0.3,1.3,0.7,1.7C37.3,18.9,38,19.2,38.6,19.2z M41.2,40V21.9h-5V40H41.2z M9.7,40l8-22.8v-1.7h6.4L32.9,40h-5.5l-2.1-5.7h-8.6
	L14.8,40H9.7z M18.1,29.3h5.9L21,19.8L18.1,29.3z"/>
</svg>
