<?xml version="1.0" encoding="utf-8"?>
<!-- Generator: Adobe Illustrator 23.0.1, SVG Export Plug-In . SVG Version: 6.00 Build 0)  -->
<svg version="1.1" id="Capa_1" xmlns="http://www.w3.org/2000/svg" xmlns:xlink="http://www.w3.org/1999/xlink" x="0px" y="0px"
	 viewBox="0 0 55 55" style="enable-background:new 0 0 55 55;" xml:space="preserve">
<style type="text/css">
	.st0{fill:#F7F1E8;}
	.st1{fill-rule:evenodd;clip-rule:evenodd;fill:#1A1AA2;}
</style>
<rect x="8.3" y="8.6" class="st0" width="40.4" height="35.6"/>
<path class="st1" d="M55,10.3v34.4C55,50.4,50.3,55,44.7,55H10.3C4.6,55,0,50.3,0,44.7V10.3C0,4.6,4.7,0,10.3,0h34.4
	C50.3,0,55,4.7,55,10.3z M17.8,17.8c2.6-2.6,6.1-4,9.7-4s7.1,1.5,9.7,4c2.6,2.5,4,6.1,4,9.7s-1.5,7.1-4,9.7c-2.5,2.6-6.1,4-9.7,4
	s-7.1-1.5-9.7-4c-2.6-2.5-4-6.1-4-9.7S15.2,20.4,17.8,17.8z M39.5,10.7c0.7-0.7,1.5-1,2.4-1c0.9,0,1.8,0.3,2.4,1
	c0.7,0.7,1,1.5,1,2.4c0,0.9-0.3,1.8-1,2.4c-0.7,0.7-1.5,1-2.4,1c-0.9,0-1.8-0.3-2.4-1c-0.6-0.7-1-1.5-1-2.4
	C38.5,12.1,38.8,11.2,39.5,10.7z"/>
<path class="st1" d="M30.7,19.8c-1-0.5-2.1-0.6-3.2-0.6c-2.2,0-4.2,0.9-5.8,2.4c-1.6,1.6-2.4,3.7-2.4,5.8s0.9,4.2,2.4,5.8
	c1.6,1.6,3.7,2.4,5.8,2.4c1,0,2.2-0.2,3.2-0.6c1-0.5,1.9-1,2.6-1.8c0.8-0.8,1.4-1.7,1.8-2.6c0.5-1,0.6-2.1,0.6-3.2
	c0-1-0.2-2.2-0.6-3.2c-0.5-1-1-1.9-1.8-2.6C32.5,20.9,31.6,20.3,30.7,19.8z"/>
</svg>
