<?xml version="1.0" encoding="utf-8"?>
<!-- Generator: Adobe Illustrator 23.0.1, SVG Export Plug-In . SVG Version: 6.00 Build 0)  -->
<svg version="1.1" id="Capa_1" xmlns="http://www.w3.org/2000/svg" xmlns:xlink="http://www.w3.org/1999/xlink" x="0px" y="0px"
	 viewBox="0 0 40 40" style="enable-background:new 0 0 40 40;" xml:space="preserve">
<style type="text/css">
	.st0{fill:#F7F1E8;}
	.st1{fill-rule:evenodd;clip-rule:evenodd;fill:#1A1AA2;}
</style>
<rect x="6" y="6.3" class="st0" width="29.4" height="25.9"/>
<path class="st1" d="M40,7.5v25c0,4.1-3.4,7.5-7.5,7.5h-25C3.3,40,0,36.6,0,32.5v-25C0,3.3,3.4,0,7.5,0h25C36.6,0,40,3.4,40,7.5z
	 M12.9,12.9c1.9-1.9,4.4-2.9,7.1-2.9s5.2,1.1,7.1,2.9c1.9,1.8,2.9,4.4,2.9,7.1s-1.1,5.2-2.9,7.1C25.2,28.9,22.6,30,20,30
	s-5.2-1.1-7.1-2.9S10,22.6,10,20S11.1,14.8,12.9,12.9z M28.7,7.8c0.5-0.5,1.1-0.7,1.7-0.7s1.3,0.2,1.7,0.7c0.5,0.5,0.7,1.1,0.7,1.7
	c0,0.7-0.2,1.3-0.7,1.7c-0.5,0.5-1.1,0.7-1.7,0.7s-1.3-0.2-1.7-0.7c-0.4-0.5-0.7-1.1-0.7-1.7C28,8.8,28.2,8.1,28.7,7.8z"/>
<path class="st1" d="M22.3,14.4C21.6,14,20.8,14,20,14c-1.6,0-3.1,0.7-4.2,1.7c-1.2,1.2-1.7,2.7-1.7,4.2s0.7,3.1,1.7,4.2
	c1.2,1.2,2.7,1.7,4.2,1.7c0.7,0,1.6-0.1,2.3-0.4c0.7-0.4,1.4-0.7,1.9-1.3c0.6-0.6,1-1.2,1.3-1.9c0.4-0.7,0.4-1.5,0.4-2.3
	c0-0.7-0.1-1.6-0.4-2.3c-0.4-0.7-0.7-1.4-1.3-1.9C23.6,15.2,23,14.8,22.3,14.4z"/>
</svg>
