<?xml version="1.0" encoding="utf-8"?>
<!-- Generator: Adobe Illustrator 23.0.1, SVG Export Plug-In . SVG Version: 6.00 Build 0)  -->
<svg version="1.1" id="Capa_1" xmlns="http://www.w3.org/2000/svg" xmlns:xlink="http://www.w3.org/1999/xlink" x="0px" y="0px"
	 viewBox="0 0 48 48" style="enable-background:new 0 0 48 48;" xml:space="preserve">
<style type="text/css">
	.st0{fill:#F7F1E8;}
	.st1{fill:#1A1AA2;}
</style>
<rect x="5.5" y="10.4" class="st0" width="37.9" height="27.6"/>
<path class="st1" d="M36,22.9c0.5,0.5,0.8,1.3,0.9,2c0,0-5.9,0-5.9,0c-0.1,0,0.1-0.5,0.1-0.6c0.1-0.3,0.2-0.5,0.3-0.8
	c0.5-0.9,1.6-1.6,2.7-1.5C34.9,22,35.5,22.4,36,22.9z M19,21.6c0.5-0.5,0.8-1.2,0.8-2c0-0.2-0.1-0.4-0.2-0.6
	c-0.2-0.3-0.4-0.6-0.8-0.7c-0.9-0.4-2.1-0.3-3.1-0.3c-0.8,0-1.6,0-2.4,0c0,0-0.1,0-0.1,0c0,0,0,4.2,0,4.2s4.1,0,4.1,0
	C18,22.2,18.6,21.9,19,21.6z M17.5,24.7h-4.2c0,0,0,5,0,5c1.3,0,2.6,0,3.9,0c0.8,0,1.6-0.1,2.3-0.5c0.7-0.4,1-1.2,1-1.9
	c0-0.7-0.1-1.6-0.8-2C19.2,24.9,18.5,24.7,17.5,24.7z M48,9V39c0,5-4.1,9-9,9H9c-5,0-9-4.1-9-9V9c0-5,4.1-9,9-9H39
	C43.9,0,48,4.1,48,9z M30.3,17.7h7.4v-1.8h-7.4V17.7z M24.4,27.7c0-1-0.2-2.1-0.7-3c-0.6-0.7-1.3-1.3-2.4-1.7
	c0.7-0.4,1.5-0.9,1.8-1.5c0.7-1,0.7-2.6,0.4-3.8c-0.2-0.7-0.5-1.3-1.1-1.8c-0.3-0.2-0.7-0.4-1-0.6c-2-0.8-4-0.7-6.1-0.7
	c-1.7,0-3.5,0-5.2,0c-0.3,0-0.5,0-0.8,0v18.1c0,0,8.9,0,8.9,0c1.7,0,3.6-0.5,4.9-1.7c0.4-0.3,0.7-0.7,0.9-1.1c0.2-0.3,0.2-0.6,0.3-1
	C24.3,28.6,24.4,28.2,24.4,27.7z M31,27.1c0,0,9.4,0,9.4,0c0-1.6,0-3.3-0.8-4.7c-0.8-1.3-2.1-2.3-3.5-2.7c-1.2-0.4-2.6-0.5-3.8-0.1
	c-0.7,0.2-1.4,0.5-2,0.9c-0.6,0.4-1.1,0.8-1.5,1.3c-0.6,0.7-0.9,1.5-1.1,2.4c-0.5,1.9-0.4,3.9,0.5,5.7c0.9,1.8,2.6,3.1,4.6,3.4
	c1.6,0.3,3.3,0,4.7-0.8c1.4-0.8,2.3-2.1,2.9-3.6h-3.1c-0.2,0.4-0.4,0.7-0.9,1.1c-0.6,0.4-1.1,0.6-1.8,0.6c-0.9,0-1.8-0.2-2.4-0.7
	C31.4,29.2,31,28.2,31,27.1z"/>
</svg>
