<?xml version="1.0" encoding="utf-8"?>
<!-- Generator: Adobe Illustrator 23.0.1, SVG Export Plug-In . SVG Version: 6.00 Build 0)  -->
<svg version="1.1" id="Capa_1" xmlns="http://www.w3.org/2000/svg" xmlns:xlink="http://www.w3.org/1999/xlink" x="0px" y="0px"
	 viewBox="0 0 55 55" style="enable-background:new 0 0 55 55;" xml:space="preserve">
<style type="text/css">
	.st0{fill:#1A1AA2;}
	.st1{fill-rule:evenodd;clip-rule:evenodd;fill:#F7F1E8;}
</style>
<rect x="11" y="12.7" class="st0" width="34.7" height="28.1"/>
<path class="st1" d="M10,0C7.3,0,4.8,1,2.9,2.9S0,7.3,0,10v35c0,2.7,1,5.2,2.9,7.1C4.8,53.9,7.3,55,10,55h35c2.7,0,5.2-1,7.1-2.9
	c1.8-1.8,2.9-4.4,2.9-7.1V10c0-2.7-1-5.2-2.9-7.1C50.2,1.1,47.7,0,45,0C45,0,10,0,10,0z M35,13.8h5v24.5c-1.4,0.5-4.9,1.5-7.4,1.5
	c-3.2,0-9-1.6-9-9.4c0-6.7,5.6-9.3,11.5-9.3L35,13.8L35,13.8z M35,25.3v10c-2.1,0-6.2-0.5-6.2-5C28.8,25.9,32.9,25.3,35,25.3z
	 M20,16.2h-5v22.5h5V16.2z"/>
</svg>
