<?xml version="1.0" encoding="utf-8"?>
<!-- Generator: Adobe Illustrator 23.0.1, SVG Export Plug-In . SVG Version: 6.00 Build 0)  -->
<svg version="1.1" id="Capa_1" xmlns="http://www.w3.org/2000/svg" xmlns:xlink="http://www.w3.org/1999/xlink" x="0px" y="0px"
	 viewBox="0 0 40 40" style="enable-background:new 0 0 40 40;" xml:space="preserve">
<style type="text/css">
	.st0{fill:#F7F1E8;}
	.st1{fill:#1A1AA2;}
</style>
<rect x="4.6" y="8.7" class="st0" width="31.6" height="23"/>
<path class="st1" d="M30,19.1c0.4,0.4,0.7,1.1,0.7,1.7h-4.9c-0.1,0,0.1-0.4,0.1-0.5c0.1-0.2,0.1-0.4,0.2-0.7
	c0.4-0.7,1.3-1.3,2.3-1.2C29.1,18.3,29.6,18.7,30,19.1z M15.9,18c0.4-0.4,0.7-1,0.7-1.7c0-0.1-0.1-0.4-0.1-0.5
	c-0.1-0.2-0.4-0.5-0.7-0.6c-0.7-0.4-1.7-0.2-2.6-0.2c-0.7,0-1.3,0-2,0H11v3.5h3.4C15,18.5,15.5,18.3,15.9,18z M14.6,20.6h-3.5v4.1
	c1.1,0,2.2,0,3.3,0c0.7,0,1.3-0.1,1.9-0.4c0.6-0.4,0.8-1,0.8-1.6S17,21.4,16.4,21C16,20.7,15.4,20.6,14.6,20.6z M40,7.5v25
	c0,4.1-3.4,7.5-7.5,7.5h-25C3.3,40,0,36.6,0,32.5v-25C0,3.3,3.4,0,7.5,0h25C36.6,0,40,3.4,40,7.5z M25.2,14.8h6.2v-1.5h-6.2
	C25.2,13.2,25.2,14.8,25.2,14.8z M20.4,23.1c0-0.8-0.1-1.7-0.6-2.5c-0.5-0.6-1.1-1.1-2-1.4c0.6-0.4,1.2-0.7,1.5-1.2
	c0.6-0.8,0.6-2.2,0.4-3.2c-0.1-0.6-0.4-1.1-0.9-1.5c-0.2-0.1-0.6-0.4-0.8-0.5c-1.7-0.7-3.3-0.6-5.1-0.6c-1.4,0-2.9,0-4.4,0
	c-0.2,0-0.4,0-0.7,0v15.1h7.4c1.4,0,3-0.4,4.1-1.4c0.4-0.2,0.6-0.6,0.7-0.9c0.1-0.2,0.1-0.5,0.2-0.8C20.2,23.9,20.4,23.5,20.4,23.1z
	 M25.8,22.6h7.9c0-1.3,0-2.8-0.7-3.9c-0.7-1.1-1.7-1.9-2.9-2.3c-1-0.4-2.2-0.4-3.2-0.1c-0.6,0.1-1.2,0.4-1.7,0.7
	c-0.5,0.3-0.9,0.7-1.2,1.1c-0.5,0.6-0.7,1.2-0.9,2c-0.4,1.6-0.4,3.3,0.4,4.7c0.8,1.5,2.2,2.6,3.9,2.8c1.3,0.2,2.8,0,3.9-0.7
	c1.2-0.7,1.9-1.7,2.4-3h-2.6c-0.1,0.4-0.4,0.6-0.7,0.9c-0.5,0.4-0.9,0.5-1.5,0.5c-0.7,0-1.5-0.1-2-0.6
	C26.2,24.4,25.8,23.5,25.8,22.6z"/>
</svg>
