<?xml version="1.0" encoding="utf-8"?>
<!-- Generator: Adobe Illustrator 23.0.1, SVG Export Plug-In . SVG Version: 6.00 Build 0)  -->
<svg version="1.1" id="Capa_1" xmlns="http://www.w3.org/2000/svg" xmlns:xlink="http://www.w3.org/1999/xlink" x="0px" y="0px"
	 viewBox="0 0 55 55" style="enable-background:new 0 0 55 55;" xml:space="preserve">
<style type="text/css">
	.st0{fill:#F7F1E8;}
	.st1{fill:#1A1AA2;}
</style>
<rect x="6.3" y="11.9" class="st0" width="43.4" height="31.6"/>
<path class="st1" d="M41.3,26.2c0.6,0.6,0.9,1.5,1,2.3h-6.8c-0.1,0,0.1-0.6,0.1-0.7c0.1-0.3,0.2-0.6,0.3-0.9c0.6-1,1.8-1.8,3.1-1.7
	C40,25.2,40.7,25.7,41.3,26.2z M21.8,24.8c0.6-0.6,0.9-1.4,0.9-2.3c0-0.2-0.1-0.5-0.2-0.7c-0.2-0.3-0.5-0.7-0.9-0.8
	c-1-0.5-2.4-0.3-3.6-0.3c-0.9,0-1.8,0-2.8,0h-0.1v4.8h4.7C20.6,25.4,21.3,25.1,21.8,24.8z M20.1,28.3h-4.8V34c1.5,0,3,0,4.5,0
	c0.9,0,1.8-0.1,2.6-0.6c0.8-0.5,1.1-1.4,1.1-2.2c0-0.8-0.1-1.8-0.9-2.3C22,28.5,21.2,28.3,20.1,28.3z M55,10.3v34.4
	C55,50.4,50.3,55,44.7,55H10.3C4.6,55,0,50.3,0,44.7V10.3C0,4.6,4.7,0,10.3,0h34.4C50.3,0,55,4.7,55,10.3z M34.7,20.3h8.5v-2.1h-8.5
	C34.7,18.2,34.7,20.3,34.7,20.3z M28,31.7c0-1.1-0.2-2.4-0.8-3.4c-0.7-0.8-1.5-1.5-2.7-1.9c0.8-0.5,1.7-1,2.1-1.7
	c0.8-1.1,0.8-3,0.5-4.4c-0.2-0.8-0.6-1.5-1.3-2.1c-0.3-0.2-0.8-0.5-1.1-0.7c-2.3-0.9-4.6-0.8-7-0.8c-1.9,0-4,0-6,0
	c-0.3,0-0.6,0-0.9,0v20.7h10.2c1.9,0,4.1-0.6,5.6-1.9c0.5-0.3,0.8-0.8,1-1.3c0.2-0.3,0.2-0.7,0.3-1.1C27.8,32.8,28,32.3,28,31.7z
	 M35.5,31.1h10.8c0-1.8,0-3.8-0.9-5.4c-0.9-1.5-2.4-2.6-4-3.1c-1.4-0.5-3-0.6-4.4-0.1c-0.8,0.2-1.6,0.6-2.3,1
	C34,23.9,33.5,24.4,33,25c-0.7,0.8-1,1.7-1.3,2.8c-0.6,2.2-0.5,4.5,0.6,6.5s3,3.6,5.3,3.9c1.8,0.3,3.8,0,5.4-0.9
	c1.6-0.9,2.6-2.4,3.3-4.1h-3.6c-0.2,0.5-0.5,0.8-1,1.3c-0.7,0.5-1.3,0.7-2.1,0.7c-1,0-2.1-0.2-2.8-0.8C36,33.5,35.5,32.3,35.5,31.1z
	"/>
</svg>
