<?xml version="1.0" encoding="utf-8"?>
<!-- Generator: Adobe Illustrator 23.0.1, SVG Export Plug-In . SVG Version: 6.00 Build 0)  -->
<svg version="1.1" id="Capa_1" xmlns="http://www.w3.org/2000/svg" xmlns:xlink="http://www.w3.org/1999/xlink" x="0px" y="0px"
	 viewBox="0 0 60 60" style="enable-background:new 0 0 60 60;" xml:space="preserve">
<style type="text/css">
	.st0{fill:#1A1AA2;}
	.st1{fill-rule:evenodd;clip-rule:evenodd;fill:#F7F1E8;}
</style>
<rect x="10.7" y="14.6" class="st0" width="37.9" height="30.7"/>
<path class="st1" d="M10.9,0C8,0,5.2,1.1,3.2,3.2S0,8,0,10.9v38.2c0,2.9,1.1,5.7,3.2,7.7c2,2,4.8,3.2,7.7,3.2h38.2
	c2.9,0,5.7-1.1,7.7-3.2c2-2,3.2-4.8,3.2-7.7V10.9c0-2.9-1.1-5.7-3.2-7.7c-2-2-4.8-3.2-7.7-3.2H10.9z M12.3,16.4h9.5
	c2.5,0,5,1,6.7,2.8c1.8,1.8,2.8,4.2,2.8,6.7s-1,5-2.8,6.7c-1.8,1.8-4.2,2.8-6.7,2.8h-4.1v8.2h-5.5V16.4z M17.7,30h4.1
	c1.1,0,2.1-0.4,2.9-1.2c0.8-0.8,1.2-1.8,1.2-2.9c0-1.1-0.4-2.1-1.2-2.9c-0.8-0.8-1.8-1.2-2.9-1.2h-4.1V30z M46.2,29
	c-2.3-0.5-4.8-0.9-6.6-0.8c-0.9,0.1-2.1,0.3-0.9,1.3c1,0.8,2.1,1.3,3.2,1.7c1.2,0.5,2.4,1,3.3,1.8c1.4,1.1,2.5,2.8,2.5,5.2
	c0,2.3-1.1,4.1-2.9,5.2c-1.6,0.9-3.4,1.2-5,1.2c-2.6,0.1-5.5-0.5-7.7-1V38c2,0.6,5.1,1.2,7.5,1.2c1.3,0,2-0.3,2.4-0.5
	c0.5-0.3,0-1.2-0.3-1.4c-1-0.8-2.1-1.3-3.3-1.8c-1.1-0.5-2.3-1-3.3-1.7c-1.4-1.1-2.5-2.8-2.5-5.1c0-1.9,0.8-3.5,2.2-4.5
	c1.3-0.9,2.8-1.2,4.2-1.3c2.3-0.2,4.8,0.2,7,0.7V29z"/>
</svg>
