<?xml version="1.0" encoding="utf-8"?>
<!-- Generator: Adobe Illustrator 23.0.1, SVG Export Plug-In . SVG Version: 6.00 Build 0)  -->
<svg version="1.1" id="Capa_1" xmlns="http://www.w3.org/2000/svg" xmlns:xlink="http://www.w3.org/1999/xlink" x="0px" y="0px"
	 viewBox="0 0 55 55" style="enable-background:new 0 0 55 55;" xml:space="preserve">
<style type="text/css">
	.st0{fill:#1A1AA2;}
	.st1{fill-rule:evenodd;clip-rule:evenodd;fill:#F7F1E8;}
</style>
<rect x="9.8" y="13.4" class="st0" width="34.7" height="28.1"/>
<path class="st1" d="M10,0C7.3,0,4.8,1,2.9,2.9S0,7.3,0,10v35c0,2.7,1,5.2,2.9,7.1C4.8,53.9,7.3,55,10,55h35c2.7,0,5.2-1,7.1-2.9
	c1.8-1.8,2.9-4.4,2.9-7.1V10c0-2.7-1-5.2-2.9-7.1C50.2,1.1,47.7,0,45,0C45,0,10,0,10,0z M11.3,15H20c2.3,0,4.6,0.9,6.1,2.6
	c1.6,1.6,2.6,3.8,2.6,6.1s-0.9,4.6-2.6,6.1c-1.6,1.6-3.9,2.6-6.1,2.6h-3.8V40h-5L11.3,15L11.3,15z M16.2,27.5H20
	c1,0,1.9-0.4,2.7-1.1c0.7-0.7,1.1-1.6,1.1-2.7c0-1-0.4-1.9-1.1-2.7C21.9,20.4,21,20,20,20h-3.8V27.5z M42.4,26.6
	c-2.1-0.5-4.4-0.8-6-0.7c-0.8,0.1-1.9,0.3-0.8,1.2c0.9,0.7,1.9,1.2,2.9,1.6c1.1,0.5,2.2,0.9,3,1.6c1.3,1,2.3,2.6,2.3,4.8
	c0,2.1-1,3.8-2.7,4.8c-1.5,0.8-3.1,1.1-4.6,1.1c-2.4,0.1-5-0.5-7.1-0.9v-5.1c1.8,0.5,4.7,1.1,6.9,1.1c1.2,0,1.8-0.3,2.2-0.5
	c0.5-0.3,0-1.1-0.3-1.3c-0.9-0.7-1.9-1.2-3-1.6c-1-0.5-2.1-0.9-3-1.6c-1.3-1-2.3-2.6-2.3-4.7c0-1.7,0.7-3.2,2-4.1
	c1.2-0.8,2.6-1.1,3.9-1.2c2.1-0.2,4.4,0.2,6.4,0.6v5H42.4z"/>
</svg>
