<?xml version="1.0" encoding="utf-8"?>
<!-- Generator: Adobe Illustrator 23.0.1, SVG Export Plug-In . SVG Version: 6.00 Build 0)  -->
<svg version="1.1" id="Capa_1" xmlns="http://www.w3.org/2000/svg" xmlns:xlink="http://www.w3.org/1999/xlink" x="0px" y="0px"
	 viewBox="0 0 48 48" style="enable-background:new 0 0 48 48;" xml:space="preserve">
<style type="text/css">
	.st0{fill:#F7F1E8;}
	.st1{fill-rule:evenodd;clip-rule:evenodd;fill:#1A1AA2;}
</style>
<rect x="7.2" y="7.5" class="st0" width="35.3" height="31.1"/>
<path class="st1" d="M48,9V39c0,5-4.1,9-9,9H9c-5,0-9-4.1-9-9V9c0-5,4.1-9,9-9H39C43.9,0,48,4.1,48,9z M15.5,15.5
	c2.3-2.3,5.3-3.5,8.5-3.5c3.2,0,6.2,1.3,8.5,3.5S36,20.8,36,24s-1.3,6.2-3.5,8.5S27.2,36,24,36c-3.2,0-6.2-1.3-8.5-3.5
	S12,27.2,12,24S13.3,17.8,15.5,15.5z M34.5,9.3c0.6-0.6,1.3-0.9,2.1-0.9c0.8,0,1.6,0.3,2.1,0.9c0.6,0.6,0.9,1.3,0.9,2.1
	s-0.3,1.6-0.9,2.1c-0.6,0.6-1.3,0.9-2.1,0.9c-0.8,0-1.6-0.3-2.1-0.9s-0.9-1.3-0.9-2.1S33.9,9.8,34.5,9.3z"/>
<path class="st1" d="M26.8,17.3c-0.9-0.4-1.8-0.5-2.8-0.5c-1.9,0-3.7,0.8-5.1,2.1c-1.4,1.4-2.1,3.2-2.1,5.1s0.8,3.7,2.1,5.1
	c1.4,1.4,3.2,2.1,5.1,2.1c0.9,0,1.9-0.2,2.8-0.5c0.9-0.4,1.7-0.9,2.3-1.6c0.7-0.7,1.2-1.5,1.6-2.3c0.4-0.9,0.5-1.8,0.5-2.8
	c0-0.9-0.2-1.9-0.5-2.8c-0.4-0.9-0.9-1.7-1.6-2.3C28.4,18.2,27.6,17.7,26.8,17.3z"/>
</svg>
